<?xml version="1.0" encoding="UTF-8"?>
<svg version="1.1" xmlns="http://www.w3.org/2000/svg" width="551" height="102">
<path d="M0 0 C5.28 0 10.56 0 16 0 C16 6.27 16 12.54 16 19 C16.99 18.505 16.99 18.505 18 18 C23.58393133 17.4900901 28.44052088 17.26129937 33.5625 19.6875 C36.01167257 22.01107398 37.58716314 23.93885347 39 27 C39 27.99 39 28.98 39 30 C40.051875 28.9171875 40.051875 28.9171875 41.125 27.8125 C47.48620351 21.48723549 52.51422723 17.73677854 61.8125 17.5625 C68.23711112 17.66991252 72.28771845 18.5931441 77 23 C79.14309814 25.23547306 81.12521523 27.53579426 83 30 C80.84309373 35.20001054 76.67907234 37.30852271 72.125 40.3125 C71.30902344 40.87517578 70.49304688 41.43785156 69.65234375 42.01757812 C68.46705078 42.80745117 68.46705078 42.80745117 67.2578125 43.61328125 C66.5373877 44.09579346 65.81696289 44.57830566 65.07470703 45.07543945 C63 46 63 46 60.87451172 45.82885742 C57.74472339 44.44495128 56.62417412 41.90031093 55 39 C55 38.01 55 37.02 55 36 C57.97 34.35 60.94 32.7 64 31 C61.06353008 29.67510626 61.06353008 29.67510626 58.4375 30.9375 C55.49235021 33.42954982 54.80797949 35.14495303 54.09375 38.8671875 C53.92364115 42.73716377 54.90094029 44.72021921 57 48 C59.73800514 49.82935152 59.73800514 49.82935152 63 50 C68.26270621 48.28156532 70.77107461 45.27357772 74 41 C77.36327963 41.56054661 79.99112219 42.41841038 83 44 C83.10957031 42.90300781 83.21914063 41.80601563 83.33203125 40.67578125 C83.49155666 39.22128484 83.65174813 37.76686137 83.8125 36.3125 C83.91788086 35.2306543 83.91788086 35.2306543 84.02539062 34.12695312 C84.52563 29.74485617 85.25950184 26.6031247 88 23 C94.79832439 17.90125671 100.65195706 17.12068728 109 18 C111.09765625 19.03515625 111.09765625 19.03515625 112.8125 20.25 C114.3903125 21.11625 114.3903125 21.11625 116 22 C118.99706734 20.42554729 118.99706734 20.42554729 120.921875 19.05078125 C125.32757135 16.82308892 130.23369612 17.28473793 135 18 C139.8882612 19.71921018 142.2625142 21.93299926 145.203125 26.1875 C148.26037383 32.63251105 147.41748965 40.03653895 147.25 47 C147.22990336 48.45700669 147.21165818 49.91404015 147.1953125 51.37109375 C147.15499191 54.91527334 147.07667994 58.4556828 147 62 C141.72 62 136.44 62 131 62 C130.67 52.43 130.34 42.86 130 33 C127.525 33.495 127.525 33.495 125 34 C123.96285478 37.11143567 123.79968139 39.49468096 123.68359375 42.76171875 C123.64169922 43.87998047 123.59980469 44.99824219 123.55664062 46.15039062 C123.51732422 47.31763672 123.47800781 48.48488281 123.4375 49.6875 C123.37272461 51.45577148 123.37272461 51.45577148 123.30664062 53.25976562 C123.20048906 56.17303626 123.09973371 59.0865026 123 62 C118.05 62 113.1 62 108 62 C107.67 52.43 107.34 42.86 107 33 C105.02 33 103.04 33 101 33 C100.67 42.57 100.34 52.14 100 62 C94.72 62 89.44 62 84 62 C83.67 59.03 83.34 56.06 83 53 C82.50371094 53.47050781 82.00742187 53.94101563 81.49609375 54.42578125 C74.09623607 61.207814 68.28292806 63.62246591 58.15625 63.34375 C51.63676512 62.63370709 47.76466613 60.12814478 43.5 55.25 C42.675 54.1775 41.85 53.105 41 52 C40.505 56.95 40.505 56.95 40 62 C34.72 62 29.44 62 24 62 C23.67 52.76 23.34 43.52 23 34 C21.515 33.505 21.515 33.505 20 33 C19.01 33.66 18.02 34.32 17 35 C16.48895078 37.80810144 16.48895078 37.80810144 16.48828125 41.1015625 C16.43510742 42.91914062 16.43510742 42.91914062 16.38085938 44.7734375 C16.35830078 46.04445312 16.33574219 47.31546875 16.3125 48.625 C16.27833984 49.90375 16.24417969 51.1825 16.20898438 52.5 C16.12628113 55.6663529 16.06147139 58.83316376 16 62 C10.72 62 5.44 62 0 62 C-0.495 60.02 -0.495 60.02 -1 58 C-1.433125 58.474375 -1.86625 58.94875 -2.3125 59.4375 C-6.10581913 62.94983253 -10.98431734 62.12747992 -15.82421875 62.09765625 C-16.68561966 62.0962413 -17.54702057 62.09482635 -18.43452454 62.09336853 C-21.18555169 62.0877714 -23.93649744 62.07521946 -26.6875 62.0625 C-28.5527332 62.05748463 -30.41796767 62.05292179 -32.28320312 62.04882812 C-36.85550011 62.03780292 -41.42773625 62.02054027 -46 62 C-45.97643433 60.89543457 -45.97643433 60.89543457 -45.95239258 59.76855469 C-45.88999528 56.42911471 -45.85099382 53.08979745 -45.8125 49.75 C-45.78736328 48.59113281 -45.76222656 47.43226562 -45.73632812 46.23828125 C-45.72182617 44.56572266 -45.72182617 44.56572266 -45.70703125 42.859375 C-45.68346558 41.31975098 -45.68346558 41.31975098 -45.65942383 39.74902344 C-46.05115128 36.58712303 -46.78710405 35.25950725 -49 33 C-52.82980483 31.72339839 -54.53498554 31.81574899 -58.3125 33.3125 C-61.07908781 34.72511938 -61.07908781 34.72511938 -62 37 C-62.48725249 42.01121384 -62.48725249 42.01121384 -60.3125 46.375 C-56.67087325 48.93398096 -54.2073964 49.18632661 -49.8359375 48.51171875 C-48.43214844 48.25841797 -48.43214844 48.25841797 -47 48 C-46.91921359 50.12438339 -46.86090859 52.2496323 -46.8125 54.375 C-46.76029297 56.15003906 -46.76029297 56.15003906 -46.70703125 57.9609375 C-46.80371094 58.96382812 -46.90039062 59.96671875 -47 61 C-52.12204939 64.41469959 -58.03146457 63.62268849 -64 63 C-70.85051854 60.78460468 -74.79297665 55.20320433 -78 49 C-78.83145722 46.23123306 -79.11951165 43.77553786 -79.09765625 40.890625 C-79.09443359 40.13652344 -79.09121094 39.38242188 -79.08789062 38.60546875 C-79.07951172 37.82816406 -79.07113281 37.05085938 -79.0625 36.25 C-79.05798828 35.45722656 -79.05347656 34.66445313 -79.04882812 33.84765625 C-79.03708565 31.89840492 -79.01915146 29.94919262 -79 28 C-78.07078735 27.80071899 -78.07078735 27.80071899 -77.12280273 27.59741211 C-74.4009528 26.83141248 -73.10006024 25.5032257 -71.0625 23.5625 C-65.25703132 18.03403181 -59.82468639 17.5952734 -52.09814453 17.63647461 C-45.24219306 17.81268995 -40.09337806 18.98411785 -35.12890625 23.82421875 C-33.6583304 25.49856955 -32.29698698 27.18930445 -31 29 C-30.401875 28.071875 -29.80375 27.14375 -29.1875 26.1875 C-25.22033898 20.40677966 -25.22033898 20.40677966 -21 19 C-19.44578271 18.91893314 -17.88832973 18.89243102 -16.33203125 18.90234375 C-15.43935547 18.90556641 -14.54667969 18.90878906 -13.62695312 18.91210938 C-12.69818359 18.92048828 -11.76941406 18.92886719 -10.8125 18.9375 C-9.87212891 18.94201172 -8.93175781 18.94652344 -7.96289062 18.95117188 C-5.64189992 18.96295355 -3.32094193 18.98088886 -1 19 C-1 22.96 -1 26.92 -1 31 C-4.96 31.33 -8.92 31.66 -13 32 C-13 32.66 -13 33.32 -13 34 C-11.35538655 34.83573823 -9.70927487 35.66852882 -8.0625 36.5 C-7.14597656 36.9640625 -6.22945313 37.428125 -5.28515625 37.90625 C-3.27190308 39.07195471 -3.27190308 39.07195471 -2 39 C-1.34 38.67 -0.68 38.34 0 38 C0 25.46 0 12.92 0 0 Z M-29 38 C-29 41.96 -29 45.92 -29 50 C-24.38 50 -19.76 50 -15 50 C-14.67 49.01 -14.34 48.02 -14 47 C-14.83144531 46.60167969 -15.66289062 46.20335937 -16.51953125 45.79296875 C-17.60621094 45.26316406 -18.69289063 44.73335937 -19.8125 44.1875 C-20.89144531 43.66542969 -21.97039062 43.14335938 -23.08203125 42.60546875 C-26 41 -26 41 -29 38 Z " fill="#FCFCFD" transform="translate(364,27)"/>
<path d="M0 0 C0.98613281 0.00322266 1.97226562 0.00644531 2.98828125 0.00976562 C4.02082031 0.01814453 5.05335937 0.02652344 6.1171875 0.03515625 C7.67759766 0.04192383 7.67759766 0.04192383 9.26953125 0.04882812 C11.84377437 0.06063658 14.41798803 0.0785724 16.9921875 0.09765625 C16.9921875 5.04765625 16.9921875 9.99765625 16.9921875 15.09765625 C13.70442708 15.32552083 10.41666667 15.55338542 7.12890625 15.78125 C3.96627792 15.98439335 3.96627792 15.98439335 0.9921875 17.09765625 C0.9921875 19.73765625 0.9921875 22.37765625 0.9921875 25.09765625 C6.2721875 25.42765625 11.5521875 25.75765625 16.9921875 26.09765625 C17.4871875 27.58265625 17.4871875 27.58265625 17.9921875 29.09765625 C18.41628906 28.55496094 18.84039062 28.01226562 19.27734375 27.453125 C20.15712891 26.37998047 20.15712891 26.37998047 21.0546875 25.28515625 C21.62316406 24.57746094 22.19164062 23.86976562 22.77734375 23.140625 C27.7352792 18.56743234 33.31800593 17.55997002 39.8671875 17.66015625 C40.56827637 17.66845459 41.26936523 17.67675293 41.99169922 17.68530273 C48.74305861 17.90482738 53.77945724 19.15671879 58.79296875 23.74609375 C63.59196198 28.99177131 65.25287405 33.55247951 65.1875 40.7109375 C65.18105469 41.95810547 65.17460938 43.20527344 65.16796875 44.49023438 C65.14283203 46.4305957 65.14283203 46.4305957 65.1171875 48.41015625 C65.10816406 49.72306641 65.09914063 51.03597656 65.08984375 52.38867188 C65.06630625 55.62507812 65.03043621 58.86139044 64.9921875 62.09765625 C59.7121875 62.09765625 54.4321875 62.09765625 48.9921875 62.09765625 C48.93611328 59.46023437 48.93611328 59.46023437 48.87890625 56.76953125 C48.813251 54.46221809 48.74680351 52.15492738 48.6796875 49.84765625 C48.65712891 48.68878906 48.63457031 47.52992187 48.61132812 46.3359375 C48.57587891 45.22089844 48.54042969 44.10585937 48.50390625 42.95703125 C48.47772217 41.93061523 48.45153809 40.90419922 48.42456055 39.84667969 C47.93528217 36.73585273 47.17480658 35.33959797 44.9921875 33.09765625 C40.45220606 31.68521758 37.28747391 32.09984862 32.9921875 34.09765625 C31.79463933 37.69030077 31.66123792 40.32483099 31.9921875 44.09765625 C33.90885563 46.79518918 35.24586928 47.84233686 38.3671875 48.91015625 C41.57075807 49.24199387 41.57075807 49.24199387 46.9921875 48.09765625 C46.9921875 52.71765625 46.9921875 57.33765625 46.9921875 62.09765625 C40.99356632 64.09719664 33.4022142 64.35233783 27.43359375 62.15625 C21.38855667 58.51094409 18.05727452 53.83761156 15.5078125 47.35546875 C14.9921875 45.09765625 14.9921875 45.09765625 14.9921875 38.09765625 C10.3721875 38.42765625 5.7521875 38.75765625 0.9921875 39.09765625 C0.6621875 46.68765625 0.3321875 54.27765625 -0.0078125 62.09765625 C-5.6178125 62.09765625 -11.2278125 62.09765625 -17.0078125 62.09765625 C-17.10703925 55.40824664 -17.17945127 48.71926995 -17.22753906 42.02929688 C-17.24759567 39.75578341 -17.27484788 37.48232115 -17.30957031 35.20898438 C-17.35834962 31.93216276 -17.38084147 28.656026 -17.3984375 25.37890625 C-17.41908264 24.37025513 -17.43972778 23.361604 -17.46099854 22.3223877 C-17.4631728 15.41084719 -16.46649774 9.64461936 -11.48931885 4.54040527 C-7.49422862 1.10797602 -5.16864436 -0.02970485 0 0 Z " fill="#FCFCFC" transform="translate(41.0078125,26.90234375)"/>
<path d="M0 0 C5.61 0 11.22 0 17 0 C17.33 6.93 17.66 13.86 18 21 C21.3 21.33 24.6 21.66 28 22 C28 14.74 28 7.48 28 0 C33.61 0 39.22 0 45 0 C45 20.46 45 40.92 45 62 C39.39 62 33.78 62 28 62 C28 53.75 28 45.5 28 37 C23.05 37.495 23.05 37.495 18 38 C17.67 45.92 17.34 53.84 17 62 C11.39 62 5.78 62 0 62 C0 41.54 0 21.08 0 0 Z " fill="#FCFBFC" transform="translate(239,27)"/>
<path d="M0 0 C5.28 0 10.56 0 16 0 C16.33 9.24 16.66 18.48 17 28 C18.5675 26.453125 20.135 24.90625 21.75 23.3125 C22.63171875 22.44238281 23.5134375 21.57226562 24.421875 20.67578125 C27.35359648 17.71507193 27.35359648 17.71507193 31 13 C26.71 12.67 22.42 12.34 18 12 C18 8.04 18 4.08 18 0 C22.18080601 -0.12403121 26.36062502 -0.21453601 30.54272461 -0.2746582 C31.96381291 -0.29973147 33.38477313 -0.33379999 34.80541992 -0.37719727 C36.85367462 -0.43817858 38.90021883 -0.46627762 40.94921875 -0.48828125 C42.17987061 -0.51446533 43.41052246 -0.54064941 44.6784668 -0.56762695 C48.92779304 0.15855339 50.38921141 1.63721582 53 5 C53.533432 11.93461603 49.20198439 16.02201064 45 21 C43.68044351 22.68198786 42.36762662 24.36929092 41.0625 26.0625 C40.051875 27.361875 39.04125 28.66125 38 30 C42.95 30 47.9 30 53 30 C53 34.29 53 38.58 53 43 C48.19451403 43.04936883 43.38917506 43.08570443 38.58349609 43.10986328 C36.94805328 43.11993254 35.31262851 43.13358881 33.67724609 43.15087891 C31.3290563 43.17508705 28.98110412 43.18647357 26.6328125 43.1953125 C25.89942657 43.20563507 25.16604065 43.21595764 24.41043091 43.22659302 C22.60537303 43.22699368 20.8009217 43.12212755 19 43 C18.34 42.34 17.68 41.68 17 41 C16.67 41.66 16.34 42.32 16 43 C10.72 43 5.44 43 0 43 C0 28.81 0 14.62 0 0 Z " fill="#FDFDFD" transform="translate(108,46)"/>
<path d="M0 0 C1.20366211 0.00483398 1.20366211 0.00483398 2.43164062 0.00976562 C3.68170898 0.02233398 3.68170898 0.02233398 4.95703125 0.03515625 C6.22450195 0.04192383 6.22450195 0.04192383 7.51757812 0.04882812 C9.6015928 0.06060222 11.68557102 0.07853735 13.76953125 0.09765625 C13.76953125 4.05765625 13.76953125 8.01765625 13.76953125 12.09765625 C9.27734375 12.78125 9.27734375 12.78125 4.78515625 13.46484375 C1.49939716 14.02106417 1.49939716 14.02106417 -2.23046875 16.09765625 C-3.55046875 18.73765625 -4.87046875 21.37765625 -6.23046875 24.09765625 C0.36953125 24.09765625 6.96953125 24.09765625 13.76953125 24.09765625 C13.76953125 28.71765625 13.76953125 33.33765625 13.76953125 38.09765625 C7.16953125 38.09765625 0.56953125 38.09765625 -6.23046875 38.09765625 C-2.90574991 43.63885432 -2.27444166 43.90999936 3.33984375 45.5390625 C6.81486396 46.33798194 10.21878975 46.77486157 13.76953125 47.09765625 C13.76953125 52.04765625 13.76953125 56.99765625 13.76953125 62.09765625 C10.93513988 62.2066713 8.10502922 62.28543529 5.26953125 62.34765625 C4.08230469 62.39792969 4.08230469 62.39792969 2.87109375 62.44921875 C-4.31928208 62.56709376 -8.86601714 60.18041201 -14.85546875 56.47265625 C-21.9043199 49.4238051 -25.16139013 41.0215952 -25.54296875 31.22265625 C-25.30630047 22.13180981 -22.29510963 13.9317892 -16.23046875 7.09765625 C-11.22885838 3.02796986 -6.58969149 -0.0467354 0 0 Z " fill="#FCFCFC" transform="translate(203.23046875,26.90234375)"/>
<path d="M0 0 C5.28 0 10.56 0 16 0 C16 14.19 16 28.38 16 43 C10.72 43 5.44 43 0 43 C0 28.81 0 14.62 0 0 Z " fill="#FDFDFD" transform="translate(513,46)"/>
<path d="M0 0 C3 2 3 2 3.875 5.8125 C4.23797024 9.72688499 3.54025024 11.8952497 1 15 C-2.47216838 16.73608419 -6.21180127 16.59211632 -10 16 C-13.06862356 13.45528778 -13.84823663 11.91058019 -14.5 8 C-13.88087611 4.28525663 -12.6428646 2.6428646 -10 0 C-6.25105057 -1.24964981 -3.84864723 -0.75598428 0 0 Z " fill="#F8F7F8" transform="translate(121,26)"/>
<path d="M0 0 C3.06862356 2.54471222 3.84823663 4.08941981 4.5 8 C3.84823663 11.91058019 3.06862356 13.45528778 0 16 C-4.32122258 16.91181761 -7.76793326 16.80084338 -11.5 14.375 C-13.35921047 11.43125008 -13.9288308 9.48729073 -14 6 C-10.96868335 -0.49567854 -6.74294969 -1.05396016 0 0 Z " fill="#FAFAFA" transform="translate(526,26)"/>
<path d="M0 0 C0.33 0 0.66 0 1 0 C1.77742989 3.4994226 2.17349334 6.83401568 2.31640625 10.4140625 C2.35830078 11.42210937 2.40019531 12.43015625 2.44335938 13.46875 C2.48267578 14.5103125 2.52199219 15.551875 2.5625 16.625 C2.60568359 17.67429687 2.64886719 18.72359375 2.69335938 19.8046875 C3 27.39769345 3 27.39769345 3 31 C3.020625 32.010625 3.04125 33.02125 3.0625 34.0625 C3 37 3 37 2 39 C1.34 39 0.68 39 0 39 C0 26.13 0 13.26 0 0 Z " fill="#F0F0F0" transform="translate(122,47)"/>
<path d="M0 0 C0.33 0 0.66 0 1 0 C1 4.95 1 9.9 1 15 C0.34 15 -0.32 15 -1 15 C-1.66 12.69 -2.32 10.38 -3 8 C-2.34 8 -1.68 8 -1 8 C-1.020625 6.865625 -1.04125 5.73125 -1.0625 4.5625 C-1 1 -1 1 0 0 Z " fill="#F0F0F0" transform="translate(365,57)"/>
<path d="M0 0 C1.5 1.3125 1.5 1.3125 3 3 C3 3.99 3 4.98 3 6 C4.32 5.67 5.64 5.34 7 5 C6.01 7.64 5.02 10.28 4 13 C3.67 13 3.34 13 3 13 C2.86722656 12.39671875 2.73445313 11.7934375 2.59765625 11.171875 C2.42105469 10.37265625 2.24445313 9.5734375 2.0625 8.75 C1.88847656 7.96109375 1.71445312 7.1721875 1.53515625 6.359375 C1.052444 4.23121297 0.53836822 2.11467158 0 0 Z " fill="#EFEFEF" transform="translate(400,51)"/>
<path d="M0 0 C0.66 0 1.32 0 2 0 C2 1.98 2 3.96 2 6 C-0.49064888 6.68707555 -2.37886292 7 -5 7 C-4.21654285 5.82780457 -3.42297164 4.66236332 -2.625 3.5 C-2.18414062 2.8503125 -1.74328125 2.200625 -1.2890625 1.53125 C-0.65097656 0.77328125 -0.65097656 0.77328125 0 0 Z " fill="#EFF1F0" transform="translate(448,74)"/>
<path d="M0 0 C0.33 0 0.66 0 1 0 C2.88178944 5.9589999 3.19671115 9.14210361 1 15 C0.67 15 0.34 15 0 15 C-1.33257403 4.44191344 -1.33257403 4.44191344 0 0 Z " fill="#EDEDED" transform="translate(403,69)"/>
<path d="M0 0 C0.66 0.66 1.32 1.32 2 2 C1.67 2.66 1.34 3.32 1 4 C2.65 3.67 4.3 3.34 6 3 C5.67 3.66 5.34 4.32 5 5 C3.02 5 1.04 5 -1 5 C-0.67 3.35 -0.34 1.7 0 0 Z " fill="#FFFFFF" transform="translate(337,70)"/>
<path d="M0 0 C4 1 4 1 4 1 Z " fill="#FFFFFF" transform="translate(351,60)"/>
<path d="M0 0 C2 1 2 1 2 1 Z " fill="#FFFFFF" transform="translate(344,74)"/>
<path d="" fill="#FFFFFF" transform="translate(0,0)"/>
<path d="M0 0 C2 1 2 1 2 1 Z " fill="#FFFFFF" transform="translate(42,67)"/>
<path d="M0 0 C2 1 2 1 2 1 Z " fill="#FFFFFF" transform="translate(120,43)"/>
<path d="" fill="#FFFFFF" transform="translate(0,0)"/>
<path d="" fill="#FFFFFF" transform="translate(0,0)"/>
<path d="" fill="#FFFFFF" transform="translate(0,0)"/>
<path d="" fill="#FFFFFF" transform="translate(0,0)"/>
<path d="" fill="#FFFFFF" transform="translate(0,0)"/>
<path d="" fill="#FFFFFF" transform="translate(0,0)"/>
<path d="" fill="#FFFFFF" transform="translate(0,0)"/>
</svg>
