<?xml version="1.0" encoding="UTF-8"?>
<svg version="1.1" xmlns="http://www.w3.org/2000/svg" width="607" height="82">
<path d="M0 0 C200.31 0 400.62 0 607 0 C607 27.06 607 54.12 607 82 C406.69 82 206.38 82 0 82 C0 54.94 0 27.88 0 0 Z " fill="#FCFCFC" transform="translate(0,0)"/>
<path d="M0 0 C3.31578122 0.61239886 5.13733236 1.92856001 7.34765625 4.43359375 C7.34765625 5.09359375 7.34765625 5.75359375 7.34765625 6.43359375 C8.55164062 6.41039062 9.755625 6.3871875 10.99609375 6.36328125 C12.5716084 6.34452512 14.14712973 6.32632476 15.72265625 6.30859375 C16.51671875 6.29183594 17.31078125 6.27507813 18.12890625 6.2578125 C20.2025764 6.24023902 22.27648866 6.33024207 24.34765625 6.43359375 C26.34765625 8.43359375 26.34765625 8.43359375 26.34765625 12.43359375 C25.68765625 12.43359375 25.02765625 12.43359375 24.34765625 12.43359375 C24.34765625 27.61359375 24.34765625 42.79359375 24.34765625 58.43359375 C6.19765625 58.43359375 -11.95234375 58.43359375 -30.65234375 58.43359375 C-31.08984375 35.62109375 -31.08984375 35.62109375 -31.22045898 28.42651367 C-31.25858042 26.54735571 -31.29704943 24.66820475 -31.3359375 22.7890625 C-31.35241333 21.81118774 -31.36888916 20.83331299 -31.38586426 19.82580566 C-31.40604614 18.89224243 -31.42622803 17.9586792 -31.44702148 16.99682617 C-31.46256577 16.18630295 -31.47811005 15.37577972 -31.49412537 14.54069519 C-31.58044096 12.24212692 -31.58044096 12.24212692 -32.65234375 9.43359375 C-31.99234375 8.44359375 -31.33234375 7.45359375 -30.65234375 6.43359375 C-27.11290539 6.11250546 -23.67397847 6.0455066 -20.125 6.08203125 C-11.77933309 5.90725289 -8.44358771 -0.42026907 0 0 Z " fill="#FBAF96" transform="translate(53.65234375,10.56640625)"/>
<path d="M0 0 C4.95 0 9.9 0 15 0 C20.445 14.355 20.445 14.355 26 29 C28.94948233 21.92124241 31.89692835 14.84262683 34.8125 7.75 C35.12380859 6.99332031 35.43511719 6.23664062 35.75585938 5.45703125 C36.50414589 3.6381194 37.25211016 1.81907499 38 0 C42.29 0 46.58 0 51 0 C51 0.66 51 1.32 51 2 C49.35 2.33 47.7 2.66 46 3 C46.33 14.55 46.66 26.1 47 38 C48.32 38.66 49.64 39.32 51 40 C51 40.66 51 41.32 51 42 C45.06 42 39.12 42 33 42 C33 41.34 33 40.68 33 40 C35.97 39.505 35.97 39.505 39 39 C38.67 29.1 38.34 19.2 38 9 C36.68 12.3 35.36 15.6 34 19 C33.21642006 20.93085811 32.43052358 22.86078068 31.640625 24.7890625 C31.24746094 25.74941406 30.85429688 26.70976563 30.44921875 27.69921875 C30.05347656 28.66472656 29.65773438 29.63023438 29.25 30.625 C28.83878906 31.62917969 28.42757812 32.63335937 28.00390625 33.66796875 C27.00296513 36.1121273 26.0016576 38.55613501 25 41 C24.34 41 23.68 41 23 41 C22.55269531 39.77925781 22.10539063 38.55851562 21.64453125 37.30078125 C21.03390602 35.63800179 20.42322594 33.97524247 19.8125 32.3125 C19.52052734 31.51521484 19.22855469 30.71792969 18.92773438 29.89648438 C16.35619546 22.90079249 13.67660052 15.95916135 11 9 C11 18.24 11 27.48 11 37 C12.98 37.99 14.96 38.98 17 40 C17 40.66 17 41.32 17 42 C11.39 42 5.78 42 0 42 C0 41.34 0 40.68 0 40 C0.804375 39.71125 1.60875 39.4225 2.4375 39.125 C5.1326468 38.26737432 5.1326468 38.26737432 6 36 C6.23426397 31.735331 6.22837645 27.46686743 6.24023438 23.1965332 C6.24994745 21.07398399 6.28097427 18.95240032 6.3125 16.83007812 C6.31902955 15.48177658 6.32428021 14.13346812 6.328125 12.78515625 C6.3374707 11.55676025 6.34681641 10.32836426 6.35644531 9.06274414 C6.25507845 6.03878277 6.25507845 6.03878277 4.66699219 4.13842773 C2.8839379 2.80915849 2.8839379 2.80915849 0 2 C0 1.34 0 0.68 0 0 Z " fill="#131313" transform="translate(519,19)"/>
<path d="M0 0 C5.28 0.33 10.56 0.66 16 1 C16.02464455 7.24796254 16.04283343 13.49589703 16.05493164 19.74389648 C16.05997298 21.87118014 16.06680591 23.99846031 16.07543945 26.12573242 C16.08751379 29.17627826 16.09323014 32.22677845 16.09765625 35.27734375 C16.10281754 36.23462875 16.10797882 37.19191376 16.11329651 38.1782074 C16.11340981 39.49946373 16.11340981 39.49946373 16.11352539 40.84741211 C16.115746 41.62684677 16.11796661 42.40628143 16.12025452 43.20933533 C16 45 16 45 15 46 C10.05 46 5.1 46 0 46 C0 30.82 0 15.64 0 0 Z " fill="#F7B09B" transform="translate(23,23)"/>
<path d="M0 0 C5.61 0 11.22 0 17 0 C17 0.66 17 1.32 17 2 C15.35 2.66 13.7 3.32 12 4 C11.67 8.95 11.34 13.9 11 19 C17.6 19 24.2 19 31 19 C30.9175 16.56625 30.835 14.1325 30.75 11.625 C30.73420898 10.86010254 30.71841797 10.09520508 30.70214844 9.30712891 C30.63234183 7.18995441 30.63234183 7.18995441 30 4 C28.08611659 2.43516506 28.08611659 2.43516506 26 2 C26 1.34 26 0.68 26 0 C31.61 0 37.22 0 43 0 C43 0.66 43 1.32 43 2 C41.35 2.66 39.7 3.32 38 4 C38 15.22 38 26.44 38 38 C39.65 38.66 41.3 39.32 43 40 C43 40.66 43 41.32 43 42 C37.39 42 31.78 42 26 42 C26 41.34 26 40.68 26 40 C28.475 39.505 28.475 39.505 31 39 C31 33.39 31 27.78 31 22 C24.73 22 18.46 22 12 22 C12 27.61 12 33.22 12 39 C13.65 39.33 15.3 39.66 17 40 C17 40.66 17 41.32 17 42 C11.39 42 5.78 42 0 42 C0 41.34 0 40.68 0 40 C2.475 39.505 2.475 39.505 5 39 C4.505 21.675 4.505 21.675 4 4 C2.68 3.34 1.36 2.68 0 2 C0 1.34 0 0.68 0 0 Z " fill="#0D0D0D" transform="translate(433,19)"/>
<path d="M0 0 C5.94 0 11.88 0 18 0 C18 0.66 18 1.32 18 2 C16.35 2.66 14.7 3.32 13 4 C12.67 8.95 12.34 13.9 12 19 C18.6 19 25.2 19 32 19 C31.938125 16.751875 31.87625 14.50375 31.8125 12.1875 C31.76029297 10.29064453 31.76029297 10.29064453 31.70703125 8.35546875 C31.35711289 4.82103116 31.35711289 4.82103116 28.44921875 3.17578125 C27.23685547 2.59376953 27.23685547 2.59376953 26 2 C26 1.34 26 0.68 26 0 C31.61 0 37.22 0 43 0 C43 0.66 43 1.32 43 2 C41.02 2.99 41.02 2.99 39 4 C39 15.22 39 26.44 39 38 C40.32 38.66 41.64 39.32 43 40 C43 40.66 43 41.32 43 42 C37.39 42 31.78 42 26 42 C26 41.34 26 40.68 26 40 C27.65 39.34 29.3 38.68 31 38 C31.33 32.72 31.66 27.44 32 22 C25.4 22 18.8 22 12 22 C12.0825 24.59875 12.165 27.1975 12.25 29.875 C12.26579102 30.69210449 12.28158203 31.50920898 12.29785156 32.35107422 C12.36719629 34.60656279 12.36719629 34.60656279 13 38 C14.90628782 39.60337399 14.90628782 39.60337399 17 40 C17 40.66 17 41.32 17 42 C11.39 42 5.78 42 0 42 C0 41.34 0 40.68 0 40 C1.65 39.34 3.3 38.68 5 38 C5 26.78 5 15.56 5 4 C2.525 3.01 2.525 3.01 0 2 C0 1.34 0 0.68 0 0 Z " fill="#080808" transform="translate(310,19)"/>
<path d="M0 0 C3.31578122 0.61239886 5.13733236 1.92856001 7.34765625 4.43359375 C7.34765625 5.09359375 7.34765625 5.75359375 7.34765625 6.43359375 C8.55164062 6.41039062 9.755625 6.3871875 10.99609375 6.36328125 C12.5716084 6.34452512 14.14712973 6.32632476 15.72265625 6.30859375 C16.51671875 6.29183594 17.31078125 6.27507813 18.12890625 6.2578125 C20.2025764 6.24023902 22.27648866 6.33024207 24.34765625 6.43359375 C26.34765625 8.43359375 26.34765625 8.43359375 26.34765625 12.43359375 C21.25825614 14.97829381 13.84763589 14.23943093 8.34765625 13.43359375 C6.07006348 11.5399134 5.25274632 10.10798407 4.171875 7.37890625 C3.40620309 5.07560491 3.40620309 5.07560491 0.34765625 3.43359375 C-5.10808112 2.70417133 -5.10808112 2.70417133 -9.75512695 5.04150391 C-12.28332135 8.22915655 -12.11374048 10.13398024 -12.04296875 14.16796875 C-12.03007813 15.46347656 -12.0171875 16.75898438 -12.00390625 18.09375 C-11.97048741 19.45704199 -11.93662766 20.82032324 -11.90234375 22.18359375 C-11.88227082 23.56247439 -11.86402142 24.94138287 -11.84765625 26.3203125 C-11.80049823 29.69211119 -11.73468913 33.06250062 -11.65234375 36.43359375 C-11.03738037 35.94753662 -10.42241699 35.46147949 -9.78881836 34.96069336 C-6.29492957 32.46334741 -2.78503313 32.75706809 1.34765625 33.43359375 C4.41015625 35.24609375 4.41015625 35.24609375 6.34765625 37.43359375 C6.34765625 38.42359375 6.34765625 39.41359375 6.34765625 40.43359375 C1.06765625 40.43359375 -4.21234375 40.43359375 -9.65234375 40.43359375 C-9.63171875 42.00109375 -9.61109375 43.56859375 -9.58984375 45.18359375 C-9.5445062 48.62924744 -9.80012379 51.02471392 -10.65234375 54.43359375 C-4.71234375 54.43359375 1.22765625 54.43359375 7.34765625 54.43359375 C7.34765625 55.09359375 7.34765625 55.75359375 7.34765625 56.43359375 C8.00765625 56.43359375 8.66765625 56.43359375 9.34765625 56.43359375 C9.34765625 57.09359375 9.34765625 57.75359375 9.34765625 58.43359375 C1.09765625 58.43359375 -7.15234375 58.43359375 -15.65234375 58.43359375 C-15.32234375 43.58359375 -14.99234375 28.73359375 -14.65234375 13.43359375 C-19.60234375 13.43359375 -24.55234375 13.43359375 -29.65234375 13.43359375 C-30.64234375 12.77359375 -31.63234375 12.11359375 -32.65234375 11.43359375 C-31.99234375 9.78359375 -31.33234375 8.13359375 -30.65234375 6.43359375 C-29.49476562 6.41941406 -28.3371875 6.40523437 -27.14453125 6.390625 C-25.60543003 6.34370118 -24.06636876 6.29545393 -22.52734375 6.24609375 C-21.76679688 6.24029297 -21.00625 6.23449219 -20.22265625 6.22851562 C-11.86236276 5.90419389 -8.46007055 -0.42108948 0 0 Z " fill="#D98576" transform="translate(53.65234375,10.56640625)"/>
<path d="M0 0 C1.89625549 0.28359985 1.89625549 0.28359985 4 1 C5.3010258 3.7138032 6.3150303 6.25230041 7.27734375 9.0859375 C7.57057022 9.89866119 7.86379669 10.71138489 8.16590881 11.54873657 C9.42203063 15.03085399 10.64097592 18.5256384 11.86108398 22.02050781 C12.75665382 24.56839328 13.67254822 27.10830937 14.58984375 29.6484375 C14.99166115 30.83450089 14.99166115 30.83450089 15.40159607 32.04452515 C17.09577618 36.72292245 18.33927407 38.75198465 23 41 C23 41.66 23 42.32 23 43 C17.39 43 11.78 43 6 43 C6 42.34 6 41.68 6 41 C8.475 40.505 8.475 40.505 11 40 C10.01 36.37 9.02 32.74 8 29 C2.72 29 -2.56 29 -8 29 C-8.66 32.63 -9.32 36.26 -10 40 C-8.02 40.33 -6.04 40.66 -4 41 C-4 41.66 -4 42.32 -4 43 C-9.28 43 -14.56 43 -20 43 C-20 42.34 -20 41.68 -20 41 C-19.08524902 40.47374023 -18.17049805 39.94748047 -17.22802734 39.40527344 C-13.02270182 36.72283433 -11.94357938 33.07704196 -10.3515625 28.515625 C-10.04930756 27.70003113 -9.74705261 26.88443726 -9.43563843 26.04412842 C-8.48001968 23.45250104 -7.55228454 20.85188247 -6.625 18.25 C-5.97968304 16.48501116 -5.33256645 14.72067919 -4.68359375 12.95703125 C-3.1014571 8.64534812 -1.54424008 4.32539301 0 0 Z " fill="#0F0F0F" transform="translate(375,18)"/>
<path d="M0 0 C1.89625549 0.28359985 1.89625549 0.28359985 4 1 C5.3010258 3.7138032 6.3150303 6.25230041 7.27734375 9.0859375 C7.57057022 9.89866119 7.86379669 10.71138489 8.16590881 11.54873657 C9.42203063 15.03085399 10.64097592 18.5256384 11.86108398 22.02050781 C12.75665382 24.56839328 13.67254822 27.10830937 14.58984375 29.6484375 C14.99166115 30.83450089 14.99166115 30.83450089 15.40159607 32.04452515 C17.09577618 36.72292245 18.33927407 38.75198465 23 41 C23 41.66 23 42.32 23 43 C17.39 43 11.78 43 6 43 C6 42.34 6 41.68 6 41 C8.475 40.505 8.475 40.505 11 40 C10.01 36.37 9.02 32.74 8 29 C2.72 29 -2.56 29 -8 29 C-8.66 32.63 -9.32 36.26 -10 40 C-8.02 40.33 -6.04 40.66 -4 41 C-4 41.66 -4 42.32 -4 43 C-9.28 43 -14.56 43 -20 43 C-20 42.34 -20 41.68 -20 41 C-19.08524902 40.47374023 -18.17049805 39.94748047 -17.22802734 39.40527344 C-13.02270182 36.72283433 -11.94357938 33.07704196 -10.3515625 28.515625 C-10.04930756 27.70003113 -9.74705261 26.88443726 -9.43563843 26.04412842 C-8.48001968 23.45250104 -7.55228454 20.85188247 -6.625 18.25 C-5.97968304 16.48501116 -5.33256645 14.72067919 -4.68359375 12.95703125 C-3.1014571 8.64534812 -1.54424008 4.32539301 0 0 Z " fill="#0F0F0F" transform="translate(159,18)"/>
<path d="M0 0 C10.56 0 21.12 0 32 0 C32 3.3 32 6.6 32 10 C31.01 10 30.02 10 29 10 C27.375 7.5625 27.375 7.5625 26 5 C23.44946069 2.44946069 15.09014574 3.2100099 12 3 C12 8.28 12 13.56 12 19 C16.08564325 18.88455718 16.08564325 18.88455718 20 18 C22.08632697 15.08158143 22.08632697 15.08158143 23 12 C23.66 12 24.32 12 25 12 C25 17.28 25 22.56 25 28 C24.34 28 23.68 28 23 28 C22.34 26.35 21.68 24.7 21 23 C18.03 22.67 15.06 22.34 12 22 C12.11339204 24.64680904 12.24012873 27.29177518 12.375 29.9375 C12.4059375 30.69224609 12.436875 31.44699219 12.46875 32.22460938 C12.5726315 34.15507395 12.77895614 36.07942081 13 38 C16.93546168 39.96773084 21.70903144 39.45770331 26 39 C29.53128096 36.67452229 30.68106942 33.95679173 32 30 C32.99 30 33.98 30 35 30 C34.67 33.96 34.34 37.92 34 42 C22.78 42 11.56 42 0 42 C0 41.34 0 40.68 0 40 C2.475 39.505 2.475 39.505 5 39 C4.505 21.675 4.505 21.675 4 4 C2.68 3.34 1.36 2.68 0 2 C0 1.34 0 0.68 0 0 Z " fill="#171717" transform="translate(257,19)"/>
<path d="M0 0 C10.56 0 21.12 0 32 0 C32 3.3 32 6.6 32 10 C31.34 10 30.68 10 30 10 C29.360625 9.030625 28.72125 8.06125 28.0625 7.0625 C26.28938993 3.75744775 26.28938993 3.75744775 23 3 C21.10787263 2.77820215 19.21115528 2.59385985 17.3125 2.4375 C15.559375 2.293125 13.80625 2.14875 12 2 C12 7.61 12 13.22 12 19 C15.3 18.67 18.6 18.34 22 18 C22.66 16.02 23.32 14.04 24 12 C24.66 12 25.32 12 26 12 C26 17.28 26 22.56 26 28 C25.01 28 24.02 28 23 28 C22.855625 27.21625 22.71125 26.4325 22.5625 25.625 C21.28463143 22.84843237 21.28463143 22.84843237 18.86328125 22.22265625 C16.59145103 21.73405226 14.29560761 21.36073834 12 21 C12.33 26.61 12.66 32.22 13 38 C16.69210448 39.84605224 20.96151909 39.34397156 25 39 C28.86059654 37.52147367 29.75620127 36.42874949 31.8125 32.8125 C32.204375 31.884375 32.59625 30.95625 33 30 C33.66 30 34.32 30 35 30 C35 33.96 35 37.92 35 42 C23.45 42 11.9 42 0 42 C0 41.34 0 40.68 0 40 C1.65 39.34 3.3 38.68 5 38 C5 26.78 5 15.56 5 4 C2.525 3.01 2.525 3.01 0 2 C0 1.34 0 0.68 0 0 Z " fill="#090909" transform="translate(481,19)"/>
<path d="M0 0 C0 -0.66 0 -1.32 0 -2 C0.99 -2 1.98 -2 3 -2 C3 2.62 3 7.24 3 12 C2.01 12 1.02 12 0 12 C-0.18175781 11.45730469 -0.36351562 10.91460937 -0.55078125 10.35546875 C-0.80214844 9.64003906 -1.05351562 8.92460937 -1.3125 8.1875 C-1.67794922 7.12595703 -1.67794922 7.12595703 -2.05078125 6.04296875 C-3.12127917 3.73897528 -3.94071308 2.49766322 -6 1 C-8.51289675 0.63786432 -8.51289675 0.63786432 -11.1875 0.8125 C-12.08855469 0.83957031 -12.98960937 0.86664062 -13.91796875 0.89453125 C-14.60503906 0.92933594 -15.29210937 0.96414062 -16 1 C-16.35446269 4.07201002 -16.47953511 6.93630345 -16 10 C-13.86337346 12.0772758 -12.64793652 12.81501183 -10 14 C-7.93163793 14.94561481 -5.86956783 15.90506135 -3.8125 16.875 C-2.78769531 17.32617188 -1.76289063 17.77734375 -0.70703125 18.2421875 C2.62862244 20.40819639 3.56371234 22.33746647 5 26 C5.61986775 29.23708715 5.59961447 31.04661299 3.828125 33.86328125 C1.00441419 37.37836455 -1.46794294 40.02884492 -6 41 C-11.39201443 41.34235012 -14.87668457 40.74658481 -20 39 C-21.98 39.495 -21.98 39.495 -24 40 C-24 35.38 -24 30.76 -24 26 C-23.01 26 -22.02 26 -21 26 C-20.74605469 26.62648438 -20.49210937 27.25296875 -20.23046875 27.8984375 C-19.88628906 28.71570313 -19.54210937 29.53296875 -19.1875 30.375 C-18.85105469 31.18710937 -18.51460938 31.99921875 -18.16796875 32.8359375 C-17.05560918 35.30147458 -17.05560918 35.30147458 -14 37 C-11.5559896 37.35373621 -11.5559896 37.35373621 -8.9375 37.3125 C-7.62072266 37.33763672 -7.62072266 37.33763672 -6.27734375 37.36328125 C-5.52582031 37.24339844 -4.77429688 37.12351563 -4 37 C-1.67250655 33.50875983 -1.49700684 32.10777749 -2 28 C-5.42638661 23.71067158 -10.03934494 21.91038688 -14.95507812 19.8203125 C-19.5315467 17.71035047 -21.25856896 15.69752574 -23 11 C-23.71776913 6.69338523 -23.26961913 5.38944985 -20.75 1.75 C-14.186104 -4.813896 -7.91446728 -3.87647377 0 0 Z " fill="#0D0D0D" transform="translate(423,21)"/>
<path d="M0 0 C10.23 0 20.46 0 31 0 C30.01778444 3.92886224 28.91676006 5.9166051 26.68359375 9.21875 C26.00103516 10.23453125 25.31847656 11.2503125 24.61523438 12.296875 C23.89658203 13.35390625 23.17792969 14.4109375 22.4375 15.5 C21.74591797 16.52609375 21.05433594 17.5521875 20.34179688 18.609375 C18.94460329 20.68237796 17.54535044 22.75399447 16.14404297 24.82421875 C12.73936248 29.86727088 9.36933006 34.93327016 6 40 C7.02585205 39.94247559 8.0517041 39.88495117 9.10864258 39.82568359 C11.5555013 39.68847656 14.00236003 39.55126953 16.44921875 39.4140625 C19.76963873 39.02686281 22.08544862 38.60660783 25 37 C26.57005699 35.09014681 26.57005699 35.09014681 27.6875 32.875 C28.88671875 30.6796875 28.88671875 30.6796875 30 29 C30.66 29 31.32 29 32 29 C32.0272415 30.41655793 32.04650467 31.83327045 32.0625 33.25 C32.07410156 34.03890625 32.08570313 34.8278125 32.09765625 35.640625 C32 38 32 38 31 42 C20.11 42 9.22 42 -2 42 C-0.42263288 38.05658219 0.9116949 35.41595876 3.25 32 C3.94738281 30.97132812 4.64476562 29.94265625 5.36328125 28.8828125 C5.76756348 28.28887695 6.1718457 27.69494141 6.58837891 27.08300781 C9.56139034 22.69599059 12.49615548 18.28327841 15.4375 13.875 C16.06495117 12.93785156 16.69240234 12.00070313 17.33886719 11.03515625 C18.22106934 9.71451172 18.22106934 9.71451172 19.12109375 8.3671875 C19.6514624 7.57425293 20.18183105 6.78131836 20.72827148 5.96435547 C22.02811412 4.03599861 22.02811412 4.03599861 23 2 C13.85750314 1.8512546 13.85750314 1.8512546 5.75 5.3125 C4.32021075 7.50824778 2.98835311 9.57404237 2 12 C1.01 12 0.02 12 -1 12 C-0.67 8.04 -0.34 4.08 0 0 Z " fill="#0A0A0A" transform="translate(207,19)"/>
<path d="M0 0 C10.56 0 21.12 0 32 0 C32 3.3 32 6.6 32 10 C31.34 10 30.68 10 30 10 C28.64721885 8.01310269 27.31431695 6.01254782 26 4 C23.29816945 2.64908472 20.88191794 2.66141942 17.875 2.4375 C15.93625 2.293125 13.9975 2.14875 12 2 C12 7.61 12 13.22 12 19 C17.0832714 18.30240826 17.0832714 18.30240826 22 17 C23.75568004 14.54251602 23.75568004 14.54251602 24 12 C24.66 12 25.32 12 26 12 C26 17.28 26 22.56 26 28 C25.34 28 24.68 28 24 28 C23.87625 27.21625 23.7525 26.4325 23.625 25.625 C22.2707816 22.80898488 22.2707816 22.80898488 19.640625 22.22265625 C17.10832108 21.73264829 14.55400493 21.36018018 12 21 C12.33 26.61 12.66 32.22 13 38 C14.65 38.66 16.3 39.32 18 40 C18 40.66 18 41.32 18 42 C12.06 42 6.12 42 0 42 C0 41.34 0 40.68 0 40 C1.65 39.34 3.3 38.68 5 38 C5 26.78 5 15.56 5 4 C2.525 3.01 2.525 3.01 0 2 C0 1.34 0 0.68 0 0 Z " fill="#050505" transform="translate(109,19)"/>
<path d="M0 0 C6.27 0 12.54 0 19 0 C19 0.66 19 1.32 19 2 C17.02 2.33 15.04 2.66 13 3 C13.33 14.55 13.66 26.1 14 38 C15.65 38.66 17.3 39.32 19 40 C19 40.66 19 41.32 19 42 C12.73 42 6.46 42 0 42 C0 41.34 0 40.68 0 40 C1.98 39.34 3.96 38.68 6 38 C6.33 26.78 6.66 15.56 7 4 C4.69 3.34 2.38 2.68 0 2 C0 1.34 0 0.68 0 0 Z " fill="#090909" transform="translate(575,19)"/>
<path d="M0 0 C5.94 0 11.88 0 18 0 C18 0.66 18 1.32 18 2 C16.35 2.66 14.7 3.32 13 4 C13 15.22 13 26.44 13 38 C14.65 38.66 16.3 39.32 18 40 C18 40.66 18 41.32 18 42 C12.06 42 6.12 42 0 42 C0 41.34 0 40.68 0 40 C2.97 39.505 2.97 39.505 6 39 C5.505 21.675 5.505 21.675 5 4 C2.525 3.01 2.525 3.01 0 2 C0 1.34 0 0.68 0 0 Z " fill="#030303" transform="translate(183,19)"/>
<path d="M0 0 C4.29 0 8.58 0 13 0 C13 0.66 13 1.32 13 2 C11.35 2.33 9.7 2.66 8 3 C8.33 14.55 8.66 26.1 9 38 C10.32 38.66 11.64 39.32 13 40 C13 40.66 13 41.32 13 42 C7.06 42 1.12 42 -5 42 C-5 41.34 -5 40.68 -5 40 C-3.02 39.34 -1.04 38.68 1 38 C1 27.44 1 16.88 1 6 C0.34 6 -0.32 6 -1 6 C-0.67 4.02 -0.34 2.04 0 0 Z " fill="#0B0B0B" transform="translate(557,19)"/>
<path d="M0 0 C3.31578122 0.61239886 5.13733236 1.92856001 7.34765625 4.43359375 C7.34765625 5.09359375 7.34765625 5.75359375 7.34765625 6.43359375 C8.55164062 6.41039062 9.755625 6.3871875 10.99609375 6.36328125 C12.5716084 6.34452512 14.14712973 6.32632476 15.72265625 6.30859375 C16.51671875 6.29183594 17.31078125 6.27507813 18.12890625 6.2578125 C20.2025764 6.24023902 22.27648866 6.33024207 24.34765625 6.43359375 C26.34765625 8.43359375 26.34765625 8.43359375 26.34765625 12.43359375 C21.25825614 14.97829381 13.84763589 14.23943093 8.34765625 13.43359375 C6.07006348 11.5399134 5.25274632 10.10798407 4.171875 7.37890625 C3.40620309 5.07560491 3.40620309 5.07560491 0.34765625 3.43359375 C-5.24484184 2.80350891 -5.24484184 2.80350891 -10.08984375 5.12109375 C-12.03690799 7.68164363 -12.03690799 7.68164363 -12.65234375 12.43359375 C-18.92234375 12.43359375 -25.19234375 12.43359375 -31.65234375 12.43359375 C-31.98234375 11.44359375 -32.31234375 10.45359375 -32.65234375 9.43359375 C-31.99234375 8.44359375 -31.33234375 7.45359375 -30.65234375 6.43359375 C-27.11290539 6.11250546 -23.67397847 6.0455066 -20.125 6.08203125 C-11.77933309 5.90725289 -8.44358771 -0.42026907 0 0 Z " fill="#EA4B3E" transform="translate(53.65234375,10.56640625)"/>
<path d="M0 0 C3.23326464 0.64314486 4.99958274 1.99033032 7.16015625 4.4296875 C7.16015625 5.4196875 7.16015625 6.4096875 7.16015625 7.4296875 C1.22015625 7.4296875 -4.71984375 7.4296875 -10.83984375 7.4296875 C-11.16984375 6.7696875 -11.49984375 6.1096875 -11.83984375 5.4296875 C-8.2271482 0.76814486 -5.68475311 -0.3226738 0 0 Z " fill="#E74E37" transform="translate(52.83984375,43.5703125)"/>
<path d="M0 0 C0.66 0 1.32 0 2 0 C2.83719383 2.29032311 3.6698929 4.58210957 4.5 6.875 C4.73847656 7.52597656 4.97695313 8.17695312 5.22265625 8.84765625 C7 13.7734375 7 13.7734375 7 16 C3.04 16 -0.92 16 -5 16 C-3.40615011 10.63886855 -1.8106711 5.29273092 0 0 Z " fill="#EEEEEE" transform="translate(374,28)"/>
<path d="M0 0 C0.66 0 1.32 0 2 0 C2.83719383 2.29032311 3.6698929 4.58210957 4.5 6.875 C4.73847656 7.52597656 4.97695312 8.17695312 5.22265625 8.84765625 C7 13.7734375 7 13.7734375 7 16 C3.04 16 -0.92 16 -5 16 C-3.40615011 10.63886855 -1.8106711 5.29273092 0 0 Z " fill="#EEEEEE" transform="translate(158,28)"/>
<path d="M0 0 C0.33 0.66 0.66 1.32 1 2 C1.99 1.67 2.98 1.34 4 1 C4 11.89 4 22.78 4 34 C3.67 34 3.34 34 3 34 C2.67 24.43 2.34 14.86 2 5 C-0.28063801 10.70159502 -2.55451254 16.39233831 -4.75 22.125 C-5.17796875 23.24132812 -5.6059375 24.35765625 -6.046875 25.5078125 C-6.36140625 26.33023438 -6.6759375 27.15265625 -7 28 C-8.11083984 26.35253906 -8.11083984 26.35253906 -9 24 C-8.40087891 21.34277344 -8.40087891 21.34277344 -7.2265625 18.359375 C-6.8140625 17.28945313 -6.4015625 16.21953125 -5.9765625 15.1171875 C-5.53054688 14.00601563 -5.08453125 12.89484375 -4.625 11.75 C-4.18671875 10.62335937 -3.7484375 9.49671875 -3.296875 8.3359375 C-2.21147124 5.55164091 -1.11213922 2.7737018 0 0 Z " fill="#4F4F4F" transform="translate(555,23)"/>
<path d="M0 0 C0.99 0 1.98 0 3 0 C3.25394531 0.62648437 3.50789063 1.25296875 3.76953125 1.8984375 C4.11371094 2.71570312 4.45789063 3.53296875 4.8125 4.375 C5.14894531 5.18710937 5.48539062 5.99921875 5.83203125 6.8359375 C6.94439082 9.30147458 6.94439082 9.30147458 10 11 C12.0492094 11.45139459 12.0492094 11.45139459 14.1875 11.625 C15.445625 11.74875 16.70375 11.8725 18 12 C18 12.33 18 12.66 18 13 C16.35 13 14.7 13 13 13 C13 13.66 13 14.32 13 15 C9.87709365 14.51421457 7.00419641 14.0013988 4 13 C2.68 13.33 1.36 13.66 0 14 C0 9.38 0 4.76 0 0 Z " fill="#1E1E1E" transform="translate(399,47)"/>
<path d="M0 0 C1.23327026 0.0314209 1.23327026 0.0314209 2.49145508 0.06347656 C3.38413086 0.07636719 4.27680664 0.08925781 5.1965332 0.10253906 C6.12530273 0.13605469 7.05407227 0.16957031 8.01098633 0.20410156 C8.95135742 0.22214844 9.89172852 0.24019531 10.8605957 0.25878906 C13.18258522 0.30593606 15.50252322 0.37171925 17.82348633 0.45410156 C17.82348633 1.11410156 17.82348633 1.77410156 17.82348633 2.45410156 C18.48348633 2.45410156 19.14348633 2.45410156 19.82348633 2.45410156 C19.82348633 3.11410156 19.82348633 3.77410156 19.82348633 4.45410156 C11.57348633 4.45410156 3.32348633 4.45410156 -5.17651367 4.45410156 C-2.17651367 0.45410156 -2.17651367 0.45410156 0 0 Z " fill="#F94E31" transform="translate(43.176513671875,64.5458984375)"/>
<path d="M0 0 C4.07279689 0.38422612 7.46574118 0.87944471 11 3 C11 2.34 11 1.68 11 1 C11.99 1 12.98 1 14 1 C14 5.62 14 10.24 14 15 C13.01 15 12.02 15 11 15 C10.608125 13.7625 10.21625 12.525 9.8125 11.25 C7.97343793 6.34005127 5.25727077 4.22014636 0.6875 1.75 C0.130625 1.5025 -0.42625 1.255 -1 1 C-0.67 0.67 -0.34 0.34 0 0 Z " fill="#141414" transform="translate(412,18)"/>
<path d="M0 0 C5.94 0 11.88 0 18 0 C18.33 1.32 18.66 2.64 19 4 C12.73 4 6.46 4 0 4 C0 2.68 0 1.36 0 0 Z " fill="#DB3238" transform="translate(22,19)"/>
<path d="M0 0 C6.27 0 12.54 0 19 0 C19 0.99 19 1.98 19 3 C15.81175432 4.59412284 12.37103338 4.10174735 8.875 4.0625 C8.12089844 4.05798828 7.36679688 4.05347656 6.58984375 4.04882812 C4.72652873 4.03703499 2.86325445 4.01909942 1 4 C0.67 2.68 0.34 1.36 0 0 Z " fill="#D43F46" transform="translate(61,20)"/>
<path d="M0 0 C1.98 0 3.96 0 6 0 C6 3.96 6 7.92 6 12 C4.02 12 2.04 12 0 12 C0 8.04 0 4.08 0 0 Z " fill="#43ACEA" transform="translate(44,51)"/>
<path d="M0 0 C0.66 0 1.32 0 2 0 C2 3.96 2 7.92 2 12 C5.465 11.505 5.465 11.505 9 11 C9 11.99 9 12.98 9 14 C3.72 14 -1.56 14 -7 14 C-6.67 12.68 -6.34 11.36 -6 10 C-6 10.66 -6 11.32 -6 12 C-4.02 12 -2.04 12 0 12 C0 8.04 0 4.08 0 0 Z " fill="#E9BA9B" transform="translate(50,51)"/>
<path d="M0 0 C1.65 0 3.3 0 5 0 C5 3.96 5 7.92 5 12 C3.35 12 1.7 12 0 12 C0 8.04 0 4.08 0 0 Z " fill="#38A0E8" transform="translate(52,51)"/>
<path d="M0 0 C0.99 0 1.98 0 3 0 C3 1.32 3 2.64 3 4 C4.32 4 5.64 4 7 4 C7 2.68 7 1.36 7 0 C7.66 0 8.32 0 9 0 C9 3.3 9 6.6 9 10 C8.34 10 7.68 10 7 10 C7 8.68 7 7.36 7 6 C5.68 6 4.36 6 3 6 C3 7.32 3 8.64 3 10 C2.01 10 1.02 10 0 10 C0 6.7 0 3.4 0 0 Z " fill="#E7283E" transform="translate(46,19)"/>
<path d="M0 0 C0.5775 0.639375 1.155 1.27875 1.75 1.9375 C3.98062401 3.98223868 5.07436391 4.58205199 8 5 C8 5.66 8 6.32 8 7 C2.72 7 -2.56 7 -8 7 C-8 6.34 -8 5.68 -8 5 C-6.25 3.7109375 -6.25 3.7109375 -4 2.375 C-3.2575 1.92898437 -2.515 1.48296875 -1.75 1.0234375 C-1.1725 0.68570313 -0.595 0.34796875 0 0 Z " fill="#0B0B0B" transform="translate(363,54)"/>
<path d="M0 0 C0.5775 0.639375 1.155 1.27875 1.75 1.9375 C3.98062401 3.98223868 5.07436391 4.58205199 8 5 C8 5.66 8 6.32 8 7 C2.72 7 -2.56 7 -8 7 C-8 6.34 -8 5.68 -8 5 C-6.25 3.7109375 -6.25 3.7109375 -4 2.375 C-3.2575 1.92898437 -2.515 1.48296875 -1.75 1.0234375 C-1.1725 0.68570313 -0.595 0.34796875 0 0 Z " fill="#0B0B0B" transform="translate(147,54)"/>
<path d="M0 0 C2.62561109 -0.08074203 5.24875676 -0.1403623 7.875 -0.1875 C8.99455078 -0.22520508 8.99455078 -0.22520508 10.13671875 -0.26367188 C12.3046875 -0.29296875 12.3046875 -0.29296875 16 0 C16.66 0.99 17.32 1.98 18 3 C11.73 3 5.46 3 -1 3 C-0.67 2.01 -0.34 1.02 0 0 Z " fill="#E8493A" transform="translate(62,17)"/>
<path d="M0 0 C8.94364932 -0.62518714 8.94364932 -0.62518714 13.0625 1.8125 C15 4 15 4 16 7 C15.34 7.66 14.68 8.32 14 9 C13.54625 8.236875 13.0925 7.47375 12.625 6.6875 C8.96051102 2.93576128 5.00667954 2.17523203 0 1 C0 0.67 0 0.34 0 0 Z " fill="#E3644D" transform="translate(46,11)"/>
<path d="M0 0 C0.99 0 1.98 0 3 0 C3.027193 1.58323688 3.04648306 3.16661062 3.0625 4.75 C3.07410156 5.63171875 3.08570313 6.5134375 3.09765625 7.421875 C3.00826198 9.7818838 2.66912821 11.74498524 2 14 C1.34 14 0.68 14 0 14 C0 9.38 0 4.76 0 0 Z " fill="#E49B80" transform="translate(41,51)"/>
<path d="M0 0 C1.91438489 0.3662999 3.83123849 0.71986402 5.75 1.0625 C6.73484375 1.23910156 7.7196875 1.41570313 8.734375 1.59765625 C9.48203125 1.73042969 10.2296875 1.86320312 11 2 C11 2.33 11 2.66 11 3 C5.39 3 -0.22 3 -6 3 C-6 2.01 -6 1.02 -6 0 C-3.43172157 -1.28413921 -2.72255809 -0.76631443 0 0 Z " fill="#D1323C" transform="translate(48,48)"/>
<path d="M0 0 C1.65 0 3.3 0 5 0 C5 2.31 5 4.62 5 7 C3.35 7 1.7 7 0 7 C0 4.69 0 2.38 0 0 Z " fill="#50AEE7" transform="translate(25,50)"/>
<path d="M0 0 C1.65 0 3.3 0 5 0 C5 2.31 5 4.62 5 7 C3.35 7 1.7 7 0 7 C0 4.69 0 2.38 0 0 Z " fill="#4AACE8" transform="translate(65,50)"/>
<path d="M0 0 C1.65 0 3.3 0 5 0 C5 2.31 5 4.62 5 7 C3.35 7 1.7 7 0 7 C0 4.69 0 2.38 0 0 Z " fill="#4EADE7" transform="translate(71,50)"/>
<path d="M0 0 C1.65 0 3.3 0 5 0 C5 2.31 5 4.62 5 7 C3.35 7 1.7 7 0 7 C0 4.69 0 2.38 0 0 Z " fill="#4FACE5" transform="translate(65,29)"/>
<path d="M0 0 C1.32 0 2.64 0 4 0 C4 2.31 4 4.62 4 7 C2.35 7 0.7 7 -1 7 C-1.04254356 5.00045254 -1.04080783 2.99958364 -1 1 C-0.67 0.67 -0.34 0.34 0 0 Z " fill="#4CACE7" transform="translate(45,33)"/>
<path d="M0 0 C0.33 0.66 0.66 1.32 1 2 C1.66 2.33 2.32 2.66 3 3 C1.68 6.63 0.36 10.26 -1 14 C-1.99 13.67 -2.98 13.34 -4 13 C-3.52140759 11.39566191 -3.04210442 9.79153584 -2.5625 8.1875 C-2.29566406 7.29417969 -2.02882813 6.40085937 -1.75390625 5.48046875 C-1.19612127 3.64526945 -0.60655425 1.81966274 0 0 Z " fill="#262626" transform="translate(371,28)"/>
<path d="M0 0 C0.33 0.66 0.66 1.32 1 2 C1.66 2.33 2.32 2.66 3 3 C1.68 6.63 0.36 10.26 -1 14 C-1.99 13.67 -2.98 13.34 -4 13 C-3.52140759 11.39566191 -3.04210442 9.79153584 -2.5625 8.1875 C-2.29566406 7.29417969 -2.02882812 6.40085937 -1.75390625 5.48046875 C-1.19612127 3.64526945 -0.60655425 1.81966274 0 0 Z " fill="#262626" transform="translate(155,28)"/>
<path d="M0 0 C1.32 0 2.64 0 4 0 C4 2.31 4 4.62 4 7 C2.35 7 0.7 7 -1 7 C-1.04254356 5.00045254 -1.04080783 2.99958364 -1 1 C-0.67 0.67 -0.34 0.34 0 0 Z " fill="#50ADE6" transform="translate(72,29)"/>
<path d="M0 0 C1.32 0 2.64 0 4 0 C4 2.31 4 4.62 4 7 C2.35 7 0.7 7 -1 7 C-1.04254356 5.00045254 -1.04080783 2.99958364 -1 1 C-0.67 0.67 -0.34 0.34 0 0 Z " fill="#439DE2" transform="translate(26,29)"/>
<path d="M0 0 C1.65 0 3.3 0 5 0 C5 1.98 5 3.96 5 6 C3.35 6 1.7 6 0 6 C0 4.02 0 2.04 0 0 Z " fill="#49AEEA" transform="translate(71,40)"/>
<path d="M0 0 C1.65 0 3.3 0 5 0 C5 1.98 5 3.96 5 6 C3.35 6 1.7 6 0 6 C0 4.02 0 2.04 0 0 Z " fill="#45ADEB" transform="translate(65,40)"/>
<path d="M0 0 C1.65 0 3.3 0 5 0 C5 1.98 5 3.96 5 6 C3.35 6 1.7 6 0 6 C0 4.02 0 2.04 0 0 Z " fill="#4BAEE9" transform="translate(25,40)"/>
<path d="M0 0 C1.32 0 2.64 0 4 0 C4 2.31 4 4.62 4 7 C2.68 7 1.36 7 0 7 C0 4.69 0 2.38 0 0 Z " fill="#41AEED" transform="translate(32,50)"/>
<path d="M0 0 C1.32 0 2.64 0 4 0 C4 2.31 4 4.62 4 7 C2.68 7 1.36 7 0 7 C0 4.69 0 2.38 0 0 Z " fill="#45ACEB" transform="translate(53,33)"/>
<path d="M0 0 C1.32 0 2.64 0 4 0 C4 2.31 4 4.62 4 7 C2.68 7 1.36 7 0 7 C0 4.69 0 2.38 0 0 Z " fill="#46AEEB" transform="translate(32,29)"/>
<path d="M0 0 C0.66 0.66 1.32 1.32 2 2 C1.53128597 6.1012478 0.16243456 10.04772249 -1 14 C-3 11 -3 11 -2.75 8.6875 C-1.93116583 5.75334421 -1.00329153 2.87610238 0 0 Z " fill="#2C2C2C" transform="translate(555,23)"/>
<path d="M0 0 C1.41687119 4.25061356 0.19320039 6.71851625 -1 11 C-1.99 10.34 -2.98 9.68 -4 9 C-3.47731534 6.23723823 -2.89130413 3.6739124 -2 1 C-1.34 0.67 -0.68 0.34 0 0 Z " fill="#191919" transform="translate(366,46)"/>
<path d="M0 0 C1.41687119 4.25061356 0.19320039 6.71851625 -1 11 C-1.99 10.34 -2.98 9.68 -4 9 C-3.47731534 6.23723823 -2.89130413 3.6739124 -2 1 C-1.34 0.67 -0.68 0.34 0 0 Z " fill="#191919" transform="translate(150,46)"/>
<path d="M0 0 C6.27 0 12.54 0 19 0 C19 0.99 19 1.98 19 3 C18.49984375 2.84660156 17.9996875 2.69320313 17.484375 2.53515625 C14.09672234 1.80542604 10.70038481 1.63643523 7.25 1.4375 C6.55261719 1.39431641 5.85523437 1.35113281 5.13671875 1.30664062 C3.42468078 1.20110404 1.71236439 1.1001009 0 1 C0 0.67 0 0.34 0 0 Z " fill="#DC3438" transform="translate(61,20)"/>
<path d="M0 0 C1.32 0 2.64 0 4 0 C4 1.98 4 3.96 4 6 C2.68 6 1.36 6 0 6 C0 4.02 0 2.04 0 0 Z " fill="#3EAEF0" transform="translate(32,40)"/>
<path d="M0 0 C0.33 0 0.66 0 1 0 C1 2.31 1 4.62 1 7 C1.99 7 2.98 7 4 7 C4 7.99 4 8.98 4 10 C2.68 10 1.36 10 0 10 C0 6.7 0 3.4 0 0 Z " fill="#4AC4F8" transform="translate(52,53)"/>
<path d="M0 0 C3.60990505 0.22561907 4.30209025 1.30209025 7 4 C3.7 3.67 0.4 3.34 -3 3 C-2.01 2.01 -1.02 1.02 0 0 Z " fill="#DE4A34" transform="translate(45,45)"/>
<path d="M0 0 C3.37462715 0.54723683 5.08235 1.0549 8 3 C5.36 3 2.72 3 0 3 C0 2.01 0 1.02 0 0 Z " fill="#C3293D" transform="translate(42,48)"/>
<path d="M0 0 C1.68762851 1.6454378 3.3540349 3.31288577 5 5 C5 5.33 5 5.66 5 6 C3.35 6 1.7 6 0 6 C0 4.02 0 2.04 0 0 Z " fill="#60BEEA" transform="translate(25,30)"/>
</svg>
